HIERARCHY
ROOT Bip01_Pelvis
{
	OFFSET 0.000000 0.839532 0.000000
	CHANNELS 6 Xposition Yposition Zposition Zrotation Yrotation Xrotation 
	JOINT BN_Tail_01
	{
		OFFSET -0.009409 0.085362 -0.136899
		CHANNELS 3 Zrotation Yrotation Xrotation
		JOINT BN_Tail_02
		{
			OFFSET -0.014885 -0.086122 -0.370687
			CHANNELS 3 Zrotation Yrotation Xrotation
			End Site #name: BN_Tail_03
			{
				OFFSET -0.013822 -0.033121 -0.344212
			}
		}
	}
	JOINT Bip01_Spine
	{
		OFFSET 0.007219 -0.022001 0.201243
		CHANNELS 3 Zrotation Yrotation Xrotation
		JOINT Bip01_R_Thigh
		{
			OFFSET -0.095309 0.020299 -0.204710
			CHANNELS 3 Zrotation Yrotation Xrotation
			JOINT Bip01_R_Calf
			{
				OFFSET -0.050472 -0.340261 0.038148
				CHANNELS 3 Zrotation Yrotation Xrotation
				JOINT Bip01_R_HorseLink
				{
					OFFSET 0.009748 -0.221992 -0.209761
					CHANNELS 3 Zrotation Yrotation Xrotation
					JOINT Bip01_R_Foot
					{
						OFFSET -0.031895 -0.202561 0.032876
						CHANNELS 3 Zrotation Yrotation Xrotation
						JOINT Bip01_R_Toe0
						{
							OFFSET -0.013787 -0.070130 0.061873
							CHANNELS 3 Zrotation Yrotation Xrotation
							End Site #name: Bip01_R_Toe0Nub
							{
								OFFSET -0.017575 -0.002853 0.082462
							}
						}
					}
				}
			}
		}
		JOINT Bip01_L_Thigh
		{
			OFFSET 0.088204 0.020264 -0.198335
			CHANNELS 3 Zrotation Yrotation Xrotation
			JOINT Bip01_L_Calf
			{
				OFFSET 0.053371 -0.340260 0.033977
				CHANNELS 3 Zrotation Yrotation Xrotation
				JOINT Bip01_L_HorseLink
				{
					OFFSET -0.026535 -0.221992 -0.208304
					CHANNELS 3 Zrotation Yrotation Xrotation
					JOINT Bip01_L_Foot
					{
						OFFSET 0.034431 -0.202561 0.030212
						CHANNELS 3 Zrotation Yrotation Xrotation
						JOINT Bip01_L_Toe0
						{
							OFFSET 0.018704 -0.070130 0.060568
							CHANNELS 3 Zrotation Yrotation Xrotation
							End Site #name: Bip01_L_Toe0Nub
							{
								OFFSET 0.024131 -0.002853 0.080787
							}
						}
					}
				}
			}
		}
		JOINT Bip01_Spine1
		{
			OFFSET 0.021081 -0.002837 0.204232
			CHANNELS 3 Zrotation Yrotation Xrotation
			JOINT Bip01_Spine2
			{
				OFFSET 0.008239 -0.000000 0.205173
				CHANNELS 3 Zrotation Yrotation Xrotation
				JOINT Bip01_Neck
				{
					OFFSET 0.008891 0.036465 0.221398
					CHANNELS 3 Zrotation Yrotation Xrotation
					JOINT Bip01_R_Clavicle
					{
						OFFSET -0.082551 0.086601 -0.070067
						CHANNELS 3 Zrotation Yrotation Xrotation
						JOINT Bip01_R_UpperArm
						{
							OFFSET -0.081467 -0.221566 0.155342
							CHANNELS 3 Zrotation Yrotation Xrotation
							JOINT Bip01_R_Forearm
							{
								OFFSET 0.032471 -0.207279 -0.170957
								CHANNELS 3 Zrotation Yrotation Xrotation
								JOINT Bip01_R_Hand
								{
									OFFSET 0.035936 -0.331089 0.055466
									CHANNELS 3 Zrotation Yrotation Xrotation
									JOINT Bip01_R_Finger0
									{
										OFFSET 0.012208 -0.137310 0.023210
										CHANNELS 3 Zrotation Yrotation Xrotation
										JOINT Bip01_R_Finger01
										{
											OFFSET -0.019264 0.001357 0.114299
											CHANNELS 3 Zrotation Yrotation Xrotation
											End Site #name: Bip01_R_Finger0Nub
											{
												OFFSET -0.011628 -0.000723 0.071099
											}
										}
									}
								}
							}
						}
					}
					JOINT Bip01_L_Clavicle
					{
						OFFSET 0.076594 0.086691 -0.076442
						CHANNELS 3 Zrotation Yrotation Xrotation
						JOINT Bip01_L_UpperArm
						{
							OFFSET 0.093660 -0.221563 0.148314
							CHANNELS 3 Zrotation Yrotation Xrotation
							JOINT Bip01_L_Forearm
							{
								OFFSET -0.046075 -0.207282 -0.167799
								CHANNELS 3 Zrotation Yrotation Xrotation
								JOINT Bip01_L_Hand
								{
									OFFSET -0.031373 -0.331088 0.058175
									CHANNELS 3 Zrotation Yrotation Xrotation
									JOINT Bip01_L_Finger0
									{
										OFFSET -0.010308 -0.137310 0.024117
										CHANNELS 3 Zrotation Yrotation Xrotation
										JOINT Bip01_L_Finger01
										{
											OFFSET 0.028367 0.001359 0.112386
											CHANNELS 3 Zrotation Yrotation Xrotation
											End Site #name: Bip01_L_Finger0Nub
											{
												OFFSET 0.017292 -0.000721 0.069938
											}
										}
									}
								}
							}
						}
					}
					JOINT Bip01_Neck1
					{
						OFFSET 0.006650 0.097274 0.167145
						CHANNELS 3 Zrotation Yrotation Xrotation
						JOINT Bip01_Head
						{
							OFFSET 0.006481 0.091507 0.161377
							CHANNELS 3 Zrotation Yrotation Xrotation
							End Site #name: BN_Mouth_01
							{
								OFFSET 0.001201 -0.016686 0.110222
							}
							End Site #name: BN_Ear_L_01
							{
								OFFSET 0.115409 0.155912 0.020688
							}
							End Site #name: BN_Ear_R_01
							{
								OFFSET -0.119810 0.155918 0.030132
							}
							End Site #name: Bip01_HeadNub
							{
								OFFSET 0.012463 0.035566 0.310381
							}
						}
					}
				}
			}
		}
	}
}
MOTION
Frames: 10
Frame Time: 0.041667
0.017515 0.728538 -0.000176 -8.717053 4.604016 9.289804 148.339348 -2.671628 10.865031 -2.316470 0.269768 -50.003031 13.696188 -9.110321 -7.828801 -19.856078 29.542241 -27.201606 22.350316 -17.935291 0.135949 -27.323138 -2.469039 -29.874249 7.992498 -15.679505 41.781640 0.296828 -2.118087 -0.055179 -0.779237 44.289388 2.926153 25.592009 -20.980936 8.923073 -21.157009 2.014960 12.580399 -15.853966 -14.608236 -12.913620 -4.805103 -23.755808 -17.102104 0.720572 3.169434 -0.146766 0.518009 0.296440 -1.945526 -10.743591 -3.002684 16.208387 -163.322877 46.480749 -88.256174 -46.155682 37.296740 169.676760 13.665491 27.403902 118.226646 -168.158475 -81.154414 -174.410139 -83.218855 -11.206764 84.689606 4.738829 9.124821 -1.665048 39.958976 -33.357452 -7.747447 125.292701 -6.375679 121.821457 -25.032873 56.689288 120.313291 -151.004172 81.584846 -133.309224 21.179361 31.253283 105.227089 0.000853 -0.903667 -1.779283 -44.908809 -34.123772 -3.750121 58.930419 20.929139 -3.626326 
0.016704 0.733520 -0.080758 -9.098288 2.470122 7.219515 148.559842 -2.434233 11.506127 -1.719649 -1.022764 -49.740537 13.469073 -8.241253 -5.883496 -19.951637 28.943341 -30.726323 18.807062 -15.340365 -6.005431 -24.560908 -1.872404 -22.772160 7.386849 -14.589589 45.872625 0.390610 -2.127842 0.351803 -6.188351 43.441467 -6.133884 26.074825 -23.064703 17.673839 -22.551963 0.023939 0.945889 -15.361882 -10.192412 -6.833548 -5.760033 -22.860923 -14.660385 0.682337 4.051373 0.016586 0.506860 0.950386 -1.680528 -11.536024 -2.665495 19.663442 -157.674105 44.901518 -84.097149 -44.528853 39.632292 172.905255 14.986640 28.438235 125.284839 -177.103773 -79.299282 -165.760228 -75.685013 -8.902397 82.886528 4.372504 9.117962 -1.663402 42.915639 -30.986823 -11.416254 127.305638 -5.513409 118.074348 -25.267242 56.124918 119.368737 -155.555704 78.914263 -138.753849 19.890360 30.523475 105.146371 0.000853 -0.903667 -1.779283 -43.187336 -36.325332 -5.227618 59.168204 21.447844 -4.072314 
0.015091 0.739466 -0.159756 -9.440037 0.300558 5.087580 149.039866 -1.822865 13.179407 -0.316062 -3.941019 -48.585023 13.256134 -7.330821 -3.792526 -18.805053 29.361282 -32.019492 13.137042 -12.199940 -15.285326 -20.595587 -1.620705 -12.749421 6.608695 -13.758121 49.472381 0.285178 -2.128373 -0.079020 -10.494944 42.328063 -13.182238 26.197693 -24.314240 22.878354 -23.373624 -1.781439 -8.508615 -14.219746 -5.971501 -0.955519 -6.870773 -21.758893 -11.955588 0.639979 4.955793 0.185645 0.494749 1.584875 -1.399866 -12.348637 -2.315602 23.308204 -152.270067 42.820136 -80.132405 -41.303912 41.092323 179.532064 15.708037 28.901833 128.868874 179.662988 -77.202788 -162.941866 -68.377729 -6.362535 81.364715 4.015779 9.111288 -1.661779 46.046699 -28.127820 -15.429131 129.715277 -4.185882 114.986179 -25.648832 55.076216 117.668419 -159.393273 76.126202 -143.461542 17.609358 29.760947 104.434706 0.000853 -0.903667 -1.779283 -40.968669 -38.857412 -7.274165 59.446723 21.976409 -4.179928 
0.014108 0.744626 -0.239410 -9.640647 -1.915321 3.327929 149.719927 -0.957909 15.724888 1.657374 -8.130489 -46.702655 13.099756 -6.317904 -2.109978 -19.558041 29.770124 -33.590466 17.798393 -14.696400 -7.697990 -23.558462 -1.742782 -20.227462 6.696879 -13.899741 50.874646 0.164336 -2.141781 -0.534244 -14.249897 40.937144 -19.138071 26.212307 -25.004322 25.761887 -23.813992 -3.322992 -16.137144 -12.386971 -2.027663 4.618215 -8.094340 -20.579971 -8.942617 0.601796 5.837157 0.348281 0.486837 2.228437 -1.134349 -13.099816 -1.894585 26.768078 -147.475225 40.511787 -76.798621 -37.164529 41.692774 -171.357162 15.902902 29.016660 129.811474 178.959977 -75.042525 -162.540774 -61.112914 -3.664912 80.209472 3.654217 9.104530 -1.660061 48.577454 -25.393546 -18.710682 131.662205 -2.680680 112.062360 -25.945406 54.102196 116.146812 -161.402600 73.677693 -146.572477 16.139313 29.016033 104.259583 0.000853 -0.903667 -1.779283 -38.882538 -41.034278 -9.139727 59.690742 22.483297 -4.524456 
0.015308 0.746923 -0.318411 -9.636746 -4.078286 2.468385 150.518610 0.021836 18.933550 3.893020 -13.149115 -44.245300 13.045415 -5.199801 -1.488179 -20.283999 30.459039 -34.125390 23.690554 -19.066288 2.557497 -27.572364 -2.540777 -30.524064 6.981068 -14.103125 50.892318 0.385003 -2.215689 0.621212 -17.684430 39.217726 -24.441864 26.204881 -25.359253 27.251136 -24.006121 -4.494668 -21.786314 -9.991370 1.341891 9.481850 -9.286242 -19.274441 -5.920816 0.588735 6.627122 0.479713 0.493972 2.879837 -0.916800 -13.664452 -1.391206 29.490863 -143.709883 38.480301 -74.508693 -32.959453 41.524617 -161.109165 15.679385 28.884606 128.729465 179.258458 -73.060284 -162.913551 -54.050197 -1.073743 79.397271 3.289248 9.097729 -1.658305 49.792303 -23.704371 -20.199805 132.364963 -1.541224 108.814529 -26.023804 53.811710 115.702827 -160.748561 72.179154 -147.395941 17.391557 28.422637 105.796375 0.000853 -0.903667 -1.779283 -37.901075 -42.103267 -9.726888 59.806515 22.923290 -5.697360 
0.020279 0.744585 -0.393800 -9.436944 -6.074859 3.026333 151.320586 0.971307 22.466104 6.043436 -18.369454 -41.425588 13.120981 -3.976887 -2.570288 -20.007353 31.603265 -31.624373 28.585600 -24.063859 12.094743 -31.209745 -3.956352 -40.273380 7.800403 -13.987531 48.935220 0.665489 -2.206492 1.928093 -20.949931 37.097841 -29.432466 26.191628 -25.641650 28.440051 -24.066571 -5.228248 -25.289535 -7.266653 3.974274 13.025699 -10.386607 -17.971811 -2.987904 0.600640 7.232628 0.551507 0.517702 3.525871 -0.773279 -13.923556 -0.807483 30.902076 -141.184660 37.312398 -73.499668 -29.226890 40.776573 -151.102937 15.218732 28.594320 126.455370 179.607233 -71.628793 -163.109243 -47.383461 1.175660 78.816245 2.931161 9.091059 -1.656542 49.007402 -24.007210 -18.868221 131.300193 -1.292139 104.855610 -25.848724 54.439383 116.667689 -156.626153 72.247194 -145.034272 23.366619 27.818450 110.260320 0.000853 -0.903667 -1.779283 -39.066435 -41.293980 -7.859602 59.724691 23.230321 -8.321867 
0.031294 0.738089 -0.468659 -9.065722 -8.298681 5.381754 152.057027 1.839868 26.179638 7.958768 -23.506968 -38.283283 13.376006 -2.434599 -5.850388 -18.964644 32.781374 -25.635548 31.936705 -28.552478 19.659109 -33.621966 -5.319532 -47.130690 9.766850 -12.971396 44.479397 0.645841 -2.238685 1.746077 -24.330015 34.280390 -34.425511 26.167514 -25.975262 29.850075 -24.076739 -5.463551 -26.412476 -4.183388 6.371198 14.904303 -11.350299 -16.685486 -0.222646 0.612349 7.705223 0.473172 0.523185 4.289300 -0.661800 -13.845146 0.021720 30.849371 -139.476852 37.269900 -73.719262 -25.545098 39.242388 -140.942967 14.389723 28.003734 122.187130 -177.102628 -71.508475 -166.374767 -40.415789 3.209716 78.020533 2.569755 9.084339 -1.654715 45.219838 -26.899826 -13.348646 128.793436 -1.568973 100.330934 -25.817686 54.543189 116.829288 -146.408423 74.319313 -136.503992 37.141483 25.642399 119.643372 0.000853 -0.903667 -1.779283 -43.004954 -37.516410 -2.616978 59.497546 23.493557 -13.564509 
0.045823 0.728333 -0.542709 -8.658231 -10.523826 8.687733 152.632931 2.576938 29.801959 9.446690 -28.086535 -34.970478 13.602780 -0.807458 -10.339068 -17.800930 33.790329 -17.133141 33.622138 -31.320107 24.056213 -34.323839 -5.791394 -49.212370 12.714487 -11.056155 38.246482 -0.008439 -2.028905 -1.485834 -27.275949 30.965597 -39.355405 26.137882 -26.275412 31.124533 -24.068776 -5.267919 -25.479630 -1.160633 8.716490 15.843945 -12.105018 -15.494428 2.202803 0.633021 8.065386 0.323616 0.532663 5.094635 -0.587175 -13.567373 0.963322 29.817310 -138.419778 38.071368 -74.606746 -22.558768 36.214012 -130.761043 13.233926 27.002025 115.736019 -173.014389 -72.614668 -170.785351 -33.644521 5.000262 77.357035 2.206056 9.077591 -1.652852 39.006026 -30.743485 -4.571337 127.332851 -0.233859 98.675839 -26.515751 51.386288 112.148890 -128.894208 76.640611 -119.515440 54.107461 20.223817 130.369573 0.000853 -0.903667 -1.779283 -47.614771 -31.586821 3.697873 59.319275 23.612023 -20.170010 
0.059586 0.715934 -0.613830 -8.310442 -12.236717 11.755801 152.968893 3.157588 33.020447 10.403703 -31.658221 -31.744461 13.624187 0.462166 -14.612181 -15.287232 35.269728 -4.431174 33.555249 -31.201409 23.870498 -33.234006 -5.073895 -45.998394 16.217011 -8.655351 31.014436 -1.757615 -2.177055 -9.123075 -29.302882 27.671925 -44.072761 26.120745 -26.421193 31.745773 -24.039044 -4.825266 -23.367269 1.376790 10.778765 16.949092 -12.608523 -14.520025 4.167147 0.696473 8.314874 0.247011 0.581670 5.784116 -0.596328 -13.254140 1.748388 28.443351 -138.109504 39.257834 -75.578227 -21.580259 32.054197 -121.400239 12.025487 25.644400 108.028426 -173.156014 -74.041292 -170.968290 -28.040273 6.291526 77.400933 1.846775 9.070940 -1.650950 32.140560 -33.667472 4.993834 128.013456 2.967951 100.836758 -26.732880 45.624427 104.516398 -110.037640 77.296027 -100.094977 68.087881 13.136709 137.828888 0.000853 -0.903667 -1.779283 -51.100333 -25.500272 8.840988 59.281177 23.518006 -26.056041 
0.068611 0.701133 -0.682229 -7.974243 -12.960669 13.440303 153.006923 3.590451 35.618484 10.856970 -33.874362 -28.864923 13.385590 0.948379 -17.336392 -10.203895 36.357226 11.312602 31.269373 -27.565706 18.050324 -30.130846 -3.460433 -37.319350 18.843927 -6.137847 24.434655 -4.031493 -2.999633 -19.490064 -30.356604 24.884602 -48.541668 26.136034 -26.291895 31.194700 -23.990106 -4.360778 -21.144638 3.314320 12.154136 19.438406 -12.825449 -13.828362 5.580072 0.834541 8.455855 0.378760 0.702256 6.215688 -0.745959 -13.033791 2.121603 27.336571 -138.678877 40.349452 -76.134719 -22.337963 29.555631 -116.800406 11.577063 25.022787 104.774050 175.982271 -74.524334 -159.719779 -24.251823 6.793290 78.702862 1.569018 9.065807 -1.649442 27.176901 -34.943592 11.978322 129.086224 5.563124 103.197408 -26.238364 41.460315 99.444688 -99.014705 77.527225 -87.825695 75.525273 8.593678 141.059687 0.000853 -0.903667 -1.779283 -52.897129 -21.526428 11.721733 59.267666 23.168774 -29.337475 
